<?xml version="1.0" encoding="utf-8"?>
<!-- Generator: Adobe Illustrator 21.0.2, SVG Export Plug-In . SVG Version: 6.00 Build 0)  -->
<svg version="1.1" id="Livello_1" xmlns="http://www.w3.org/2000/svg" xmlns:xlink="http://www.w3.org/1999/xlink" x="0px" y="0px"
	 viewBox="0 0 1920 1073.6" style="enable-background:new 0 0 1920 1073.6;" xml:space="preserve">
<style type="text/css">
	.st0{fill:#1D1D1B;}
	.st1{font-family:'MyriadPro-Bold';}
	.st2{font-size:94.8289px;}
	.st3{font-family:'MyriadPro-Regular';}
	.st4{font-size:63.2193px;}
	.st5{fill:#353743;}
	.st6{fill:#5C9030;}
	.st7{fill:#D48F05;}
	.st8{fill:#8B2546;}
	.st9{fill:#2665AE;}
</style>
<text transform="matrix(1 0 0 1 1182.7881 226.8919)" class="st0 st1 st2"> </text>
<text transform="matrix(1 0 0 1 1326.2412 226.8919)" class="st0 st3 st4"> </text>
<g>
	<path class="st5" d="M71.8,716.1l-53-0.2c-5.1,0-9.6,1.9-13.1,5.5c-3.6,3.7-5.4,8.2-5.4,13.4L0.1,753c0,5.2,1.8,9.7,5.4,13.4
		c3.6,3.7,7.9,5.5,13.1,5.6l52,0.1l-0.1,16.3l-51.1-0.1l0-7.7L0,780.6l0,8.6c0,5.3,1.8,9.7,5.4,13.4c3.5,3.7,7.9,5.6,13.1,5.6
		l53,0.2c5,0,9.5-1.9,13.1-5.5c3.6-3.7,5.5-8.2,5.5-13.4l0.1-18.2c0-5.2-1.8-9.7-5.5-13.5c-3.6-3.6-8-5.5-13-5.5l-52.1-0.2l0.1-16.2
		l51,0.1l0,7.6l19.5,0l0.1-8.6c0-5.2-1.8-9.7-5.5-13.4C81.2,718,76.8,716.1,71.8,716.1z"/>
	<path class="st5" d="M185,721.9c-3.6,3.6-5.4,8.2-5.4,13.4l-0.2,54.3c0,5.3,1.8,9.7,5.4,13.4c3.6,3.7,7.9,5.5,13,5.6l71.3,0.2
		l0-19.9l-70.4-0.2l0.1-52.5l70.3,0.2l0.1-19.9l-71.3-0.2C193,716.4,188.6,718.2,185,721.9z"/>
	<polygon class="st5" points="358.2,809.1 377.7,809.1 377.9,716.9 358.5,716.9 	"/>
	<polygon class="st5" points="464.8,809.4 547.9,809.6 548,789.7 484.5,789.5 484.5,773.2 535.6,773.4 535.7,753.5 484.5,753.4 
		484.6,737.1 548.1,737.3 548.2,717.4 465.1,717.1 	"/>
	<polygon class="st5" points="707.2,779.5 657.4,718.3 656.8,717.7 636.9,717.7 636.7,809.8 656.1,809.9 656.3,748.1 706.8,810 
		726.7,810.1 726.9,717.9 707.4,717.8 	"/>
	<path class="st5" d="M822.2,723.6c-3.6,3.6-5.4,8.2-5.4,13.4l-0.1,54.4c0,5.2,1.8,9.7,5.3,13.4c3.6,3.7,8,5.5,13.1,5.5l71.3,0.2
		l0-19.9l-70.4-0.2l0.2-52.4l70.3,0.2l0.1-19.9l-71.3-0.2C830.2,718.1,825.8,720,822.2,723.6z"/>
	<polygon class="st5" points="995.6,810.8 1078.7,811.1 1078.7,791.2 1015.3,790.9 1015.3,774.7 1066.4,774.8 1066.5,754.9 
		1015.3,754.8 1015.4,738.6 1078.8,738.7 1078.9,718.8 995.9,718.6 	"/>
	<path class="st5" d="M1358.9,719.9l-73.2-0.2l-0.3,92.1l19.9,0l0.1-30.2h53.3c5.3,0,9.7-1.8,13.5-5.5c3.7-3.7,5.6-8.2,5.6-13.4
		v-23.9c0-5.2-1.8-9.6-5.5-13.4C1368.7,721.8,1364.2,719.9,1358.9,719.9z M1357.9,739.8l0,21.9l-52.3-0.1l0.1-21.9L1357.9,739.8z"/>
	<path class="st5" d="M1538.5,720.3l-54.2-0.1c-5.3,0-9.8,1.8-13.4,5.5c-3.7,3.6-5.5,8.1-5.6,13.4l-0.2,73.3l19.9,0.1l0.1-29.8
		l52.3,0.1l-0.1,29.8l20,0l0.2-73.3c0-5.2-1.8-9.7-5.5-13.4C1548.3,722.1,1543.8,720.3,1538.5,720.3z M1537.5,740.2l0,22.6
		l-52.3-0.2l0.1-22.6L1537.5,740.2z"/>
	<path class="st5" d="M1723.1,720.9l-73.2-0.2l-0.2,92.1l19.9,0.1l0.1-30.3l26.3,0l25.5,30.5l20.4,0v-6.7l-19.8-23.8h0.8
		c5.3,0,9.9-1.9,13.5-5.5c3.7-3.7,5.6-8.2,5.6-13.4l0.1-23.8c0-5.2-1.8-9.7-5.6-13.4C1732.8,722.8,1728.3,720.9,1723.1,720.9z
		 M1722,740.8l-0.1,21.9l-52.2-0.1l0.1-21.9L1722,740.8z"/>
	<polygon class="st5" points="1921,721.3 1900.6,721.3 1870.2,757.3 1851.9,757.3 1852.1,721.1 1832,721 1831.8,813.3 1851.9,813.3 
		1851.9,777.2 1870.1,777.2 1900.3,813.4 1920.8,813.5 1920.8,806.7 1888,767.3 1921,728.1 	"/>
	<path class="st6" d="M528.2,1062.3c0,6.2,5.1,11.3,11.4,11.3h150.6c6.2,0,11.3-5.1,11.3-11.3V933.7c0-6.2-5-11.2-11.3-11.2H539.5
		c-6.3,0-11.4,5.1-11.4,11.2V1062.3z"/>
	<path class="st7" d="M754.8,1062.3c0,6.1,5,11.3,11.2,11.3h150.7c6.2,0,11.3-5.1,11.3-11.3V933.7c0-6.2-5.1-11.2-11.3-11.2H766.1
		c-6.2,0-11.2,5.1-11.2,11.2V1062.3z"/>
	<path class="st8" d="M981.7,1062.3c0,6.1,5,11.3,11.3,11.3h150.6c6.2,0,11.3-5.1,11.3-11.3V933.7c0-6.2-5.1-11.2-11.3-11.2H992.9
		c-6.3,0-11.3,5.1-11.3,11.2V1062.3z"/>
	<path class="st9" d="M1208.4,1062.6c0,6.1,5.1,11.3,11.3,11.3h151c6.2,0,11.2-5.1,11.2-11.3V933.8c0-6.2-5-11.3-11.2-11.3h-151
		c-6.3,0-11.3,5.1-11.3,11.3V1062.6z"/>
	<g>
		<path class="st5" d="M1654.4,35.2c-6.3-19.3-24-32.3-44.4-32.3c-18.8,0-35.7,11.2-42.9,28.5l-209.8,518.8c-1.3,3.1-3.2,4.4-7,4.9
			h-282.3c-64.9,0-117.6-30.8-160.9-93.9l-24.8-37l0.1,0.1L840.8,362c83.7-16.5,141.4-91.1,141.4-184.1C982.2,73.1,909.7,0,805.8,0
			H524.1v461.9L325.3,34.2C316.7,14.4,300.7,3,281.4,3c-19.6,0-36.2,11.8-44.1,31.4L5.9,603h52.6l110.3-272h141.8
			c13.5,0,24.4-10.9,24.4-24.4c0-13.5-11-24.5-24.4-24.5H188.6l90.8-223.7c0.8-2,1.4-2,1.9-2c0.3,0,0.8,0,1.4,1.3l243.1,530.7
			l0.3,0.6c3.7,8.8,12.2,14.2,22.2,14.2c12.8,0,23.4-10.1,24.3-22.9v-26.4l0.2-505.1h232.9c76.3,0,127.6,51.8,127.6,129.1
			c0,79.1-54.8,138.7-127.6,138.7H749l39.9,56.3l77.7,115.6c49.7,72.5,113.3,111.2,189.1,114.9v0.3h8.7c0.5,0,1,0.1,1.6,0.1
			c0.6,0.1,1.2,0.1,1.9,0.1h291.2l5.1-0.2v0c10.9-0.7,21-5.8,26.5-13.8c3.3-4.7,8.8-15.8,10.4-19.3l98.8-239.6h139.4
			c13.5,0,24.4-10.9,24.4-24.4c0-13.5-11-24.5-24.4-24.5h-119.9l89.4-225.4c0.7-0.3,1.5-0.4,2.3-0.1l248.4,542.7l1.9,4.4h54.7
			L1654.4,35.2z"/>
		<path class="st5" d="M1073,51.8h295.2c13.5,0,24.4-11,24.4-24.5c0-13.4-11-24.4-24.4-24.4H1073c-13.5,0-24.4,11-24.4,24.4
			C1048.6,40.9,1059.5,51.8,1073,51.8z"/>
		<path class="st5" d="M1073,331h216.1c13.5,0,24.4-10.9,24.4-24.4c0-13.5-10.9-24.5-24.4-24.5H1073c-13.5,0-24.4,11-24.4,24.5
			C1048.6,320.1,1059.5,331,1073,331z"/>
	</g>
</g>
</svg>
